#!OML:ASF E:\emotionWalksFemale\Project 1\Capture day 1\Session 1\Female1.ASF
:FULLY-SPECIFIED
:DEGREES
1713
root 9.17233 15.0461 -35.8325 0.063619 7.94086 -2.23907
lowerback 5.11105 1.41977 -0.103081
upperback -3.60043 1.89322 -0.0312648
thorax -6.62218 0.937865 -0.1788
lowerneck -8.43266 -6.92393 -8.19763
upperneck 27.5764 -14.1466 19.906
head 12.6992 -5.1284 7.15016
rclavicle -5.2007e-014 -1.07344e-014
rhumerus -44.8107 20.5156 -100.522
rradius 30.5313
rwrist 17.2863
rhand -7.77473 -50.623
rfingers 7.12502
rthumb 18.1256 -79.7984
lclavicle -5.2007e-014 -1.07344e-014
lhumerus -42.2528 2.0349 82.9104
lradius 34.2949
lwrist -16.0911
lhand -4.86269 -33.8662
lfingers 7.12502
lthumb 20.9253 -4.9749
rfemur 15.3302 15.5736 36.6492
rtibia 7.90997
rfoot -18.8244 -33.2822
rtoes 10.5558
lfemur -29.9448 -18.859 -16.6723
ltibia 36.3597
lfoot -15.2493 10.2713
ltoes -18.1017
1714
root 9.19398 15.046 -35.7883 0.171287 7.7491 -2.09545
lowerback 5.21157 1.48301 -0.177793
upperback -3.70137 1.96522 -0.141325
thorax -6.78604 0.97344 -0.264329
lowerneck -8.43358 -6.90067 -8.10405
upperneck 27.5647 -14.137 19.9346
head 12.6887 -5.11166 7.14564
rclavicle 1.30949e-014 3.97569e-015
rhumerus -45.1437 21.0245 -101.079
rradius 30.3514
rwrist 18.1286
rhand -7.91217 -50.6137
rfingers 7.12502
rthumb 17.9933 -79.8014
lclavicle 1.30949e-014 3.97569e-015
lhumerus -42.3092 1.99052 82.8052
lradius 34.5061
lwrist -15.6515
lhand -5.34536 -34.4437
lfingers 7.12502
lthumb 20.4616 -5.50181
rfemur 15.5192 15.8393 36.5144
rtibia 7.80795
rfoot -18.3262 -33.58
rtoes 8.81905
lfemur -29.7743 -18.5044 -16.9878
ltibia 36.4038
lfoot -15.4812 10.1892
ltoes -20.2009
1715
root 9.21372 15.0468 -35.7419 0.295646 7.72522 -1.92145
lowerback 5.18208 1.50334 -0.309145
upperback -3.759 1.97419 -0.263941
thorax -6.83041 0.980807 -0.319966
lowerneck -8.36158 -6.9276 -8.03396
upperneck 27.508 -14.2022 19.9998
head 12.6643 -5.13385 7.14739
rclavicle 2.8128e-014 -2.78299e-015
rhumerus -45.2531 21.3024 -101.444
rradius 30.4425
rwrist 18.1992
rhand -6.20766 -51.7108
rfingers 7.12502
rthumb 19.6327 -80.7395
lclavicle 2.8128e-014 -2.78299e-015
lhumerus -42.3072 1.86012 82.7584
lradius 34.6744
lwrist -15.4073
lhand -4.74844 -34.1545
lfingers 7.12502
lthumb 21.0351 -5.27533
rfemur 15.5838 15.9411 36.3588
rtibia 7.94364
rfoot -18.3125 -33.6313
rtoes 9.67362
lfemur -29.6499 -18.3168 -17.2947
ltibia 36.3735
lfoot -15.5138 10.0429
ltoes -20.7133
1716
root 9.24076 15.0534 -35.6842 0.377638 7.42972 -1.73876
lowerback 4.88559 1.59104 -0.382385
upperback -3.6983 2.08043 -0.374976
thorax -6.59319 1.03464 -0.395706
lowerneck -8.3626 -6.93991 -8.05181
upperneck 27.449 -14.2411 20.1119
head 12.6618 -5.14527 7.18804
rclavicle 2.52953e-014 8.74653e-015
rhumerus -45.1851 21.6779 -101.714
rradius 30.4053
rwrist 18.2286
rhand -5.5876 -52.0099
rfingers 7.12502
rthumb 20.2288 -80.9766
lclavicle 2.52953e-014 8.74653e-015
lhumerus -42.2434 1.78338 82.7694
lradius 34.8955
lwrist -15.1696
lhand -4.73328 -34.1838
lfingers 7.12502
lthumb 21.0497 -5.30621
rfemur 15.726 16.2975 36.198
rtibia 8.13713
rfoot -18.1964 -33.6796
rtoes 10.9381
lfemur -29.3809 -18.1158 -17.6401
ltibia 36.3389
lfoot -15.2445 10.3602
ltoes -22.4995
1717
root 9.2554 15.0606 -35.6511 0.679027 7.65689 -1.53578
lowerback 4.82246 1.48422 -0.673327
upperback -3.72781 1.91349 -0.402445
thorax -6.59726 0.965197 -0.242701
lowerneck -8.59783 -6.93399 -8.12767
upperneck 27.436 -14.2314 20.1761
head 12.7197 -5.1299 7.22463
rclavicle 1.81391e-014 5.1684e-015
rhumerus -45.1697 22.3852 -102.084
rradius 30.6473
rwrist 17.8379
rhand -5.35819 -52.4874
rfingers 7.12502
rthumb 20.4492 -81.4306
lclavicle 1.81391e-014 5.1684e-015
lhumerus -41.9889 2.0522 82.7535
lradius 35.0471
lwrist -14.931
lhand -4.58281 -34.1772
lfingers 7.12502
lthumb 21.1942 -5.31578
rfemur 15.4552 16.199 35.9706
rtibia 8.41587
rfoot -18.3672 -33.8075
rtoes 11.2553
lfemur -29.5262 -17.8647 -17.9662
ltibia 36.2686
lfoot -14.8747 10.2759
ltoes -24.6409
1718
root 9.28269 15.0608 -35.5915 0.506802 7.41332 -1.32922
lowerback 5.06866 1.51117 -0.697071
upperback -3.81002 1.9339 -0.58048
thorax -6.82145 0.971227 -0.426348
lowerneck -8.41156 -6.87345 -8.15106
upperneck 27.4939 -14.2122 20.359
head 12.7212 -5.11584 7.32092
rclavicle -3.26504e-014 3.18055e-015
rhumerus -45.5522 22.6245 -102.668
rradius 30.8217
rwrist 17.7393
rhand -5.01868 -52.451
rfingers 7.12502
rthumb 20.7755 -81.3588
lclavicle -3.26504e-014 3.18055e-015
lhumerus -42.2219 1.93949 82.6837
lradius 35.2635
lwrist -14.7688
lhand -5.15166 -32.7017
lfingers 7.12502
lthumb 20.6477 -3.77998
rfemur 15.8657 16.4279 35.8797
rtibia 8.71153
rfoot -18.6471 -33.9613
rtoes 10.8871
lfemur -28.942 -17.7706 -18.4181
ltibia 36.2305
lfoot -15.1506 10.5054
ltoes -24.1935
